<svg width="10" height="12" viewBox="0 0 10 12" fill="none" xmlns="http://www.w3.org/2000/svg">
<path d="M9.83317 1.15132C9.73649 1.05476 9.60543 1.00053 9.46879 1.00053C9.33215 1.00053 9.20109 1.05476 9.10441 1.15132L5.00004 5.26945L0.897379 1.14445C0.800513 1.04758 0.669134 0.993164 0.532145 0.993164C0.395155 0.993164 0.263776 1.04758 0.16691 1.14445C0.0700438 1.24132 0.015625 1.37269 0.015625 1.50968C0.015625 1.64667 0.0700438 1.77805 0.16691 1.87492L4.27129 5.99992L0.16691 10.1249C0.0702717 10.2218 0.016071 10.3531 0.0162321 10.4899C0.0163933 10.6267 0.0709027 10.7579 0.167769 10.8545C0.264635 10.9512 0.395924 11.0054 0.532752 11.0052C0.669581 11.005 0.800741 10.9505 0.897379 10.8537L5.00004 6.73039L9.10441 10.8554C9.20128 10.9523 9.33266 11.0067 9.46965 11.0067C9.60664 11.0067 9.73802 10.9523 9.83488 10.8554C9.93175 10.7585 9.98617 10.6271 9.98617 10.4902C9.98617 10.3532 9.93175 10.2218 9.83488 10.1249L5.72879 5.99992L9.83488 1.87492C9.92965 1.77823 9.98259 1.64815 9.98226 1.51277C9.98194 1.37739 9.92839 1.24756 9.83317 1.15132Z" fill="#25213B"/>
</svg>
