<svg width="15" height="20" viewBox="0 0 15 20" fill="none" xmlns="http://www.w3.org/2000/svg">
<path d="M5.98178 13.7223C5.98178 12.8938 6.65335 12.2223 7.48178 12.2223C8.3102 12.2223 8.98178 12.8938 8.98178 13.7223C8.98178 14.5507 8.3102 15.2223 7.48178 15.2223C6.65335 15.2223 5.98178 14.5507 5.98178 13.7223Z" fill="white"/>
<path fill-rule="evenodd" clip-rule="evenodd" d="M5.29227 1.72726C5.52463 1.63475 5.76703 1.56979 6.01452 1.53373C7.48778 1.31907 8.91444 2.1489 9.45623 3.53564L9.53125 3.72766C9.62421 3.96559 9.69053 4.21309 9.72899 4.46563L9.94561 5.88794L11.4285 5.66209L11.2119 4.23978C11.1568 3.87773 11.0617 3.52291 10.9284 3.1818L10.8534 2.98978C10.0576 0.95295 7.96215 -0.265894 5.79824 0.0494077C5.43473 0.102373 5.07869 0.197773 4.73741 0.333655C2.70575 1.14255 1.50045 3.24583 1.82971 5.40767L1.86075 5.61148C1.91589 5.97352 2.01096 6.32834 2.14423 6.66945L2.79838 8.34378L2.4169 8.37423C1.33417 8.46067 0.450069 9.27457 0.274554 10.3465C-0.091518 12.5821 -0.091518 14.8624 0.274554 17.0981C0.450069 18.17 1.33417 18.9839 2.4169 19.0703L3.91303 19.1898C6.28841 19.3794 8.67514 19.3794 11.0505 19.1898L12.5467 19.0703C13.6294 18.9839 14.5135 18.17 14.689 17.0981C15.0551 14.8624 15.0551 12.5821 14.689 10.3465C14.5135 9.27457 13.6294 8.46067 12.5467 8.37423L11.0505 8.25479C8.8244 8.07707 6.58832 8.06591 4.36094 8.22129L3.54139 6.12359C3.44843 5.88566 3.38211 5.63816 3.34365 5.38563L3.31261 5.18182C3.08844 3.70997 3.90905 2.27798 5.29227 1.72726ZM10.9312 9.75003C8.63522 9.56674 6.32833 9.56674 4.0324 9.75003L2.53627 9.86947C2.14134 9.901 1.81886 10.1979 1.75484 10.5889C1.41505 12.664 1.41505 14.7806 1.75484 16.8557C1.81886 17.2467 2.14134 17.5436 2.53627 17.5751L4.0324 17.6945C6.32833 17.8778 8.63523 17.8778 10.9312 17.6945L12.4273 17.5751C12.8222 17.5436 13.1447 17.2467 13.2087 16.8557C13.5485 14.7806 13.5485 12.664 13.2087 10.5889C13.1447 10.1979 12.8222 9.901 12.4273 9.86947L10.9312 9.75003Z" fill="white"/>
</svg>
